<svg version="1.1" id="Layer_1" xmlns="http://www.w3.org/2000/svg" xmlns:xlink="http://www.w3.org/1999/xlink" x="0px" y="0px"
	 width="100%" viewBox="0 0 1024 1024" enable-background="new 0 0 1024 1024" xml:space="preserve">
<path fill="#000000" opacity="1.000000" stroke="none" 
	d="
M310.702454,416.126343 
	C308.824615,416.791412 306.982330,417.600067 305.057831,418.076569 
	C303.491302,418.464417 301.526398,418.022064 301.386963,420.468201 
	C301.266113,422.588440 302.998535,422.649475 304.385681,423.126007 
	C304.811493,423.272308 305.149445,423.674255 305.879028,424.223846 
	C303.144348,426.706909 300.557495,428.723145 296.762238,427.290710 
	C295.313477,426.743866 293.427216,427.086304 293.098480,427.945770 
	C291.222473,432.850555 285.843903,433.169678 282.746155,436.331055 
	C280.925140,438.189423 279.088623,440.063995 278.713501,443.007416 
	C278.346191,445.889191 275.911255,447.380035 273.577667,448.770905 
	C269.264587,451.341614 266.691345,454.526703 269.321320,459.862732 
	C270.260651,461.768494 270.235931,464.121246 268.057892,465.109619 
	C265.823090,466.123779 264.875092,463.842957 263.990326,462.360016 
	C259.855225,455.429352 259.895508,455.409912 252.419693,457.974091 
	C251.955460,458.133301 251.449463,458.212921 250.957581,458.243103 
	C242.816101,458.742737 237.965225,464.975586 239.806625,472.646454 
	C240.231689,474.417175 240.581345,476.431061 242.818588,476.806976 
	C244.988556,477.171509 247.319672,477.254425 248.622665,475.022522 
	C250.539154,471.739777 253.196930,471.705200 256.422180,472.723724 
	C256.978058,476.061951 253.744736,478.612579 254.931290,482.409668 
	C261.158173,482.345551 262.464478,485.578400 260.829102,491.461395 
	C260.077148,494.166443 261.249664,497.465637 265.520721,496.231415 
	C267.516693,495.654663 269.079071,496.467468 270.933228,497.179596 
	C272.143433,496.171600 273.239838,494.820251 274.657867,494.163940 
	C278.152435,492.546631 281.605286,490.313019 285.699707,493.087494 
	C288.648804,495.085815 292.310303,493.917175 297.202759,494.444519 
	C286.830994,501.872498 276.843414,507.092285 266.818787,512.564026 
	C267.704865,509.461060 269.572021,506.817902 268.806000,503.550171 
	C268.495209,502.224487 268.430756,500.635468 266.657684,500.721893 
	C260.692230,501.012604 258.126953,497.016113 254.653427,492.980835 
	C250.996216,488.732239 245.743011,485.070648 239.625580,484.725281 
	C233.454391,484.376862 225.320053,477.981049 224.753159,471.852142 
	C224.439896,468.465302 221.606644,466.932068 220.201584,463.561523 
	C218.972229,466.925903 221.999405,469.061432 220.697815,472.202148 
	C216.603073,468.654816 215.647308,463.748108 214.434174,459.469452 
	C213.106827,454.787964 210.666550,450.934570 208.104324,446.435883 
	C194.436691,479.021027 192.465591,511.753906 203.624405,545.058533 
	C201.226669,547.236633 198.301987,547.488037 195.672562,548.339722 
	C192.604691,549.333313 192.034546,546.746094 191.398773,544.734009 
	C186.229080,528.373840 183.895554,511.570068 184.982193,494.478851 
	C186.537201,470.020599 193.028488,446.851929 205.930176,425.881683 
	C231.059952,385.036133 267.637268,360.697327 315.109253,354.900848 
	C369.709473,348.233948 414.159149,368.636536 449.679016,409.895050 
	C452.671295,413.370758 451.945221,415.044342 448.152008,416.899811 
	C440.974762,420.410645 433.954559,424.242096 426.859955,427.922729 
	C426.132324,428.300232 425.291718,428.917267 424.589600,428.817505 
	C415.149231,427.475830 405.740479,430.226593 396.310913,428.983673 
	C395.145233,428.830048 393.986572,428.717957 393.113892,427.376190 
	C395.202271,423.977844 399.424561,426.482056 401.941071,424.230743 
	C402.564270,421.779541 399.244781,420.989227 399.416077,418.682343 
	C399.993652,416.676483 402.153107,417.146576 403.833588,415.853851 
	C401.572479,415.453888 399.672119,416.874786 397.806671,415.817932 
	C396.582886,414.792786 397.336945,412.982452 396.341583,411.589050 
	C395.570923,412.185242 394.869263,412.870270 394.043732,413.335358 
	C392.570953,414.165192 390.750275,415.059143 389.556458,413.363647 
	C388.437592,411.774597 388.548431,409.546692 390.471191,408.565277 
	C393.108978,407.218964 391.520874,402.497437 395.443512,402.567780 
	C398.933197,402.630310 398.795868,406.695526 401.227081,408.187012 
	C403.423462,409.534363 405.132080,411.676819 407.135895,413.543274 
	C412.314270,410.873535 412.393188,408.218567 407.089325,404.557495 
	C403.417175,402.022736 403.210083,399.968781 406.284515,396.576904 
	C410.851440,391.538422 410.502991,389.473083 404.659027,385.846832 
	C379.534637,370.256836 352.253876,363.269409 322.729767,365.383118 
	C311.096802,366.215942 299.873749,368.917145 288.508087,373.299500 
	C312.978668,375.703796 336.777222,368.847870 360.896973,373.433136 
	C358.440186,375.723236 358.447205,378.677277 358.791656,381.834717 
	C359.177246,385.368713 357.716858,387.949768 354.106750,389.080994 
	C349.525055,390.516663 344.998322,392.133575 340.393860,393.488647 
	C337.520905,394.334137 335.122070,395.834442 333.711670,398.378265 
	C331.017639,403.237274 327.057678,402.507660 323.540283,400.323242 
	C320.060913,398.162476 316.034607,395.888336 317.950867,390.106689 
	C319.173767,386.417053 314.137268,382.647644 307.742523,382.367401 
	C304.565552,382.228180 301.755890,381.990448 300.418976,378.467102 
	C297.479279,379.788147 294.422546,380.127045 291.859711,383.159180 
	C298.122711,386.174622 305.367310,386.250916 309.958740,391.618347 
	C303.801208,400.494629 301.803772,400.847443 287.476776,395.312073 
	C288.577972,392.709686 292.262238,394.570648 293.132233,391.579132 
	C290.756683,392.906525 289.244507,391.787628 288.596863,389.266296 
	C282.956360,394.410431 282.956360,394.410431 284.151459,397.868256 
	C282.538788,399.321747 280.337189,398.742279 279.047699,398.121704 
	C274.737671,396.047516 271.382904,398.430206 267.820007,399.869781 
	C266.331970,400.471008 264.484406,401.212921 264.514557,403.208252 
	C264.546448,405.320404 266.622253,405.573761 268.085938,406.175171 
	C269.616028,406.803864 271.242065,407.339935 272.873260,407.549042 
	C275.366852,407.868683 277.366486,408.665314 277.989258,411.557190 
	C280.711700,408.126953 285.566589,406.743347 284.378723,401.026398 
	C283.942078,398.924835 286.936554,397.664795 289.271301,397.956177 
	C292.357971,398.341400 295.647217,398.499634 297.788361,401.360748 
	C298.305847,402.052307 298.985626,402.822327 299.827667,402.532135 
	C307.755524,399.799866 308.831482,409.407776 314.615265,410.792572 
	C316.148956,411.159729 315.168152,413.366913 313.237549,414.741913 
	C312.037201,415.460266 311.369812,415.793304 310.702454,416.126343 
M425.149292,402.499359 
	C422.673553,401.982574 421.750092,399.318054 419.398499,397.844818 
	C419.151672,400.980255 421.973877,402.441284 421.546783,405.212891 
	C421.071350,408.297852 419.066956,409.008606 415.105316,409.431702 
	C419.926483,410.295288 422.778931,408.734589 425.561340,408.450195 
	C425.561340,406.349030 425.561340,404.611664 425.149292,402.499359 
z"/>
<path fill="#000000" opacity="1.000000" stroke="none" 
	d="
M457.996185,580.991272 
	C469.054382,579.626282 480.073425,577.707275 491.293030,578.617981 
	C492.287750,578.698730 493.295654,578.760193 494.266144,578.973206 
	C500.129181,580.259827 501.055756,582.794250 497.397125,587.540405 
	C490.484833,596.507263 482.938568,604.988953 476.644440,614.427551 
	C471.171661,622.634521 467.085754,631.497864 464.904602,641.647705 
	C457.209595,639.527893 450.110687,637.286133 442.750885,636.037537 
	C417.549652,631.762207 392.387207,632.601929 367.145325,635.719543 
	C338.210632,639.293396 309.903503,646.359497 281.128784,650.756592 
	C263.987396,653.375977 246.757431,655.340759 229.664459,650.173828 
	C217.591965,646.524536 211.333496,639.194214 211.718506,629.212097 
	C211.945358,623.330200 215.128601,616.181213 219.650925,612.377197 
	C218.705444,616.133362 217.868637,619.180054 217.177170,622.259338 
	C215.442245,629.985352 218.790955,635.511780 224.983780,639.666199 
	C229.646774,642.794250 234.984482,644.419312 240.434738,645.067505 
	C255.870300,646.903320 271.262604,646.585144 285.978546,643.467651 
	C287.083710,642.155762 287.042419,641.274231 286.637238,640.555481 
	C284.328674,636.459961 284.875458,633.695129 289.959106,632.683838 
	C291.795410,632.318604 292.348389,630.790894 292.918488,629.074463 
	C295.127106,622.425110 294.690216,615.591431 294.716095,608.777283 
	C294.735352,603.711426 299.682007,596.751953 304.579132,596.101929 
	C308.186218,595.623108 309.117371,594.069153 308.866486,590.941650 
	C308.826660,590.445312 308.799530,589.931091 308.881805,589.444702 
	C309.214630,587.477966 308.139313,584.303894 311.124298,584.207031 
	C314.449463,584.099121 313.438629,587.417297 313.286163,589.245605 
	C312.826508,594.756775 314.882690,597.682495 320.609100,597.668152 
	C321.731873,597.665344 322.927673,597.795532 323.605011,599.463806 
	C320.417023,601.311951 315.014648,598.400513 314.199493,603.949402 
	C311.101379,603.558533 312.715454,600.737000 311.376984,599.575623 
	C308.588806,599.757141 311.028442,603.169739 308.774719,603.625916 
	C306.183807,604.150208 306.557983,601.583435 304.957031,599.378723 
	C304.957031,610.112427 304.957031,619.699341 304.957031,629.291321 
	C311.718414,629.399841 312.458008,628.446777 312.338684,618.936646 
	C312.306274,616.354065 310.555145,613.266235 313.015564,611.421387 
	C316.547729,608.772888 320.751373,607.180664 325.019592,606.309998 
	C326.964447,609.055176 325.722717,611.860413 326.967926,614.315430 
	C324.947083,609.534302 329.031708,605.041992 327.035248,600.109009 
	C325.879120,597.252380 327.276794,594.851318 330.386230,593.287964 
	C345.221039,585.829346 359.989746,578.236694 374.705902,570.546265 
	C378.679535,568.469727 382.792084,567.093811 386.330109,563.576843 
	C391.806946,558.132629 399.206909,557.323608 407.158325,558.860352 
	C421.996948,561.728027 437.022644,563.613159 451.930054,566.145325 
	C460.512970,567.603271 461.554291,569.815491 458.399933,577.967896 
	C458.110809,578.715088 458.123291,579.578979 457.562134,580.704651 
	C445.642914,580.543274 434.412994,578.035950 423.035065,576.685303 
	C413.635803,575.569580 404.317139,573.786255 394.928864,572.557922 
	C392.598846,572.252991 388.744629,570.934387 388.584869,575.036560 
	C388.207153,584.737000 388.463562,594.462158 388.463562,604.578796 
	C396.490448,602.601135 404.517090,602.177856 409.430939,594.698425 
	C411.191925,592.018005 414.424286,591.583130 417.333282,590.874207 
	C430.885498,587.571533 444.441528,584.284119 457.996185,580.991272 
M339.435760,619.055847 
	C339.346954,619.150940 339.258148,619.246033 339.169312,619.341125 
	C339.464478,619.386963 339.790619,619.537964 340.049744,619.461548 
	C341.737793,618.963501 343.411285,618.416077 345.316833,617.812866 
	C339.656830,614.406250 345.347137,608.841614 342.443512,604.929504 
	C341.791260,607.528503 341.725159,609.902832 342.026398,612.391357 
	C342.308167,614.718506 342.865082,617.475525 339.435760,619.055847 
z"/>
<path fill="#000000" opacity="1.000000" stroke="none" 
	d="
M361.258331,486.293793 
	C324.250214,511.301575 287.610901,536.212708 250.803543,560.872986 
	C231.550934,573.771851 211.689301,585.684265 189.984192,594.107483 
	C180.816635,597.665161 171.424164,600.467102 161.380295,600.306885 
	C141.616150,599.991516 135.047424,585.438599 137.163849,570.577881 
	C139.928070,551.168701 150.667206,535.734863 162.488876,520.924622 
	C166.703751,515.644226 170.996124,510.379639 176.527374,506.063141 
	C177.783966,508.378723 175.970551,509.372467 175.229156,510.653931 
	C169.716339,520.182922 163.919983,529.652649 163.311188,541.032227 
	C162.761658,551.303955 167.916229,556.667542 178.183685,556.664856 
	C191.373352,556.661499 203.150742,551.304932 214.839005,546.112427 
	C240.164230,534.861694 263.873047,520.598938 287.476562,506.193085 
	C315.341095,489.186584 343.100372,472.007629 370.900238,454.895294 
	C372.151825,454.124878 373.602814,453.550903 374.397034,451.381409 
	C366.824280,444.543945 357.468384,439.733368 349.328705,433.375244 
	C350.557434,430.945465 352.446167,431.730377 353.919342,431.771240 
	C375.057190,432.358246 396.192017,433.053162 417.329651,433.648773 
	C420.513519,433.738464 422.228760,434.542114 420.749176,438.101105 
	C412.759430,457.319855 404.799774,476.551147 396.798767,495.765198 
	C396.564240,496.328430 395.986237,496.748596 394.733795,498.207764 
	C392.191345,488.352631 389.864136,479.331909 387.235565,469.142975 
	C378.278992,475.055176 369.918182,480.574097 361.258331,486.293793 
z"/>
<path fill="#000000" opacity="1.000000" stroke="none" 
	d="
M448.732300,447.271545 
	C452.229187,448.136383 455.021179,450.584137 458.733429,449.318604 
	C459.086182,445.583130 457.898895,442.805969 454.424377,441.167358 
	C453.524719,440.743073 452.599670,440.282532 451.849335,439.646362 
	C447.060394,435.586151 447.287964,432.386902 452.539246,429.106689 
	C460.111542,424.376770 460.245026,424.308136 464.339630,432.270386 
	C487.391266,477.095642 487.687500,522.215149 465.849701,567.548279 
	C465.094330,569.116394 464.698181,571.101868 462.659943,571.768799 
	C459.691925,565.974487 459.701538,565.935730 451.860779,563.988831 
	C449.282806,563.348694 446.649689,562.913269 444.026642,562.474854 
	C433.927979,560.786743 430.614868,555.802124 434.774567,546.222961 
	C437.507843,539.928711 437.460266,534.190308 435.722839,527.981995 
	C435.264313,526.343445 434.743134,524.772522 433.669556,523.485901 
	C431.547089,520.942261 431.280914,518.320618 432.227722,515.114563 
	C433.251892,511.646484 432.257843,509.579681 428.770966,506.741302 
	C423.501770,502.452118 419.605255,504.304230 414.723602,505.772430 
	C411.305847,506.800293 407.652527,506.575928 404.127838,507.925323 
	C400.700897,509.237305 397.707581,505.367310 399.144806,501.840179 
	C406.494659,483.802460 413.969788,465.815796 421.351318,447.790863 
	C422.841949,444.150879 426.289429,443.796021 429.176941,442.488312 
	C432.566711,447.030518 432.566711,447.030518 443.700928,451.435394 
	C445.637573,450.488647 444.981110,446.561249 448.732300,447.271545 
z"/>
<path fill="#000000" opacity="1.000000" stroke="none" 
	d="
M223.994537,597.994995 
	C215.742874,606.300354 207.887512,614.451172 203.206085,625.065918 
	C196.979477,639.184265 200.947327,649.909668 215.208466,655.883606 
	C228.477829,661.442078 242.517303,661.391113 256.544128,660.295166 
	C284.325623,658.124512 311.283020,651.055908 338.624969,646.265442 
	C364.558960,641.721680 390.581116,637.799622 417.031281,638.959473 
	C441.071594,640.013672 464.363312,644.216492 485.359741,656.932068 
	C493.397247,661.799622 500.399872,667.950195 506.752686,674.841064 
	C507.822296,676.001221 509.410797,676.940735 509.305084,678.877625 
	C508.228729,679.794800 507.390808,679.034607 506.562744,678.552307 
	C484.623444,665.772583 460.457092,660.719543 435.584686,658.325378 
	C396.112091,654.525818 357.167633,659.466858 318.310303,665.722778 
	C291.053375,670.111023 263.887939,675.598755 236.102737,675.036560 
	C223.064682,674.772827 210.151581,672.979553 198.616272,666.101868 
	C185.997635,658.578247 181.486847,646.988342 185.322327,632.766968 
	C189.383957,617.706909 199.537048,606.932129 210.784195,597.112305 
	C229.722382,580.577393 251.309860,567.947571 273.209381,555.844055 
	C277.020752,553.737610 280.469513,550.766418 285.259369,550.588867 
	C263.957062,565.116882 243.517273,580.677490 223.994537,597.994995 
z"/>
<path fill="#000000" opacity="1.000000" stroke="none" 
	d="
M301.947357,538.180542 
	C294.838684,541.576538 288.063263,544.846619 281.032410,548.240051 
	C280.729675,545.452209 282.543365,545.150452 283.650360,544.381042 
	C295.266296,536.307190 306.956268,528.339355 318.541565,520.222046 
	C323.255554,516.919189 327.491211,514.972900 333.299469,518.752380 
	C337.880188,521.733093 343.700562,522.557495 348.212402,526.184082 
	C351.829254,529.091248 353.107452,532.797363 350.024414,536.396790 
	C345.697754,541.448120 342.350555,546.883179 341.417419,553.492310 
	C340.494965,560.025696 334.701569,561.132202 330.375214,563.770386 
	C327.548309,565.494263 325.970886,567.360413 324.794891,570.703918 
	C323.432800,574.576599 320.026306,577.758911 317.373169,581.135498 
	C316.229218,582.591309 314.750488,581.812805 313.267822,581.351807 
	C308.136505,579.756165 305.871857,581.469971 306.427368,586.703735 
	C306.769012,589.922058 306.640869,591.914307 302.586395,592.610229 
	C298.437653,593.322449 292.576111,602.144165 292.318939,606.507935 
	C292.098206,610.253052 292.855896,614.106018 291.457642,617.730896 
	C283.150177,616.998657 278.180878,608.442688 281.686890,601.184570 
	C282.474091,599.554871 282.910706,598.057739 281.890289,596.489563 
	C279.978424,593.551514 280.232452,590.207092 281.126404,587.310974 
	C283.828003,578.558411 283.125122,569.527161 283.534393,560.645569 
	C283.738220,556.223450 285.100983,553.573975 288.443115,551.188599 
	C294.652740,546.756653 300.714294,542.117249 307.655518,536.955933 
	C304.987427,536.625977 303.666626,537.512817 301.947357,538.180542 
z"/>
<path fill="#000000" opacity="1.000000" stroke="none" 
	d="
M509.633789,373.369965 
	C502.504425,368.535889 495.665466,363.907928 488.700684,359.194824 
	C490.788910,355.776062 493.191895,355.357178 496.240448,356.337311 
	C501.147400,357.914948 506.140656,359.226715 511.034729,360.840881 
	C514.558899,362.003235 517.788391,363.379730 521.012146,359.864532 
	C522.847534,357.863220 524.785156,359.201447 525.690186,361.330048 
	C527.930054,366.598450 533.755859,368.574127 538.732788,365.681030 
	C546.069519,361.416260 553.471436,357.262939 560.782410,352.954895 
	C565.226929,350.335938 570.036804,350.383911 574.849548,350.879852 
	C578.778137,351.284729 579.776672,353.954956 577.399841,357.259644 
	C575.730774,359.580353 573.469116,361.323090 571.077332,362.859009 
	C563.516541,367.714325 555.940796,372.546570 548.361145,377.372528 
	C546.217896,378.737183 544.156189,380.144226 543.766663,383.366425 
	C545.884399,384.541168 549.108093,385.735107 546.682861,389.268066 
	C545.188599,391.444794 541.820984,391.495972 540.584229,394.108246 
	C544.823181,399.424622 544.879333,399.507477 539.423523,403.203857 
	C537.845703,404.272858 537.320007,405.674438 536.876221,407.273956 
	C535.898438,410.798004 534.953186,414.331055 533.975403,417.855133 
	C533.198242,420.656036 531.574402,422.513519 527.674988,422.873962 
	C525.937195,412.761108 527.536926,402.291870 524.357361,391.543793 
	C508.169189,399.801697 493.196899,411.665649 473.032257,407.072754 
	C478.507599,398.619843 467.863983,398.508636 467.087891,393.338531 
	C469.135742,390.132996 471.899719,389.234863 475.510071,390.948364 
	C484.289551,395.115143 492.405548,394.970184 500.412292,388.499817 
	C505.113220,384.700958 510.830933,382.160339 516.201233,378.988861 
	C514.536621,376.185242 511.821350,375.357483 509.633789,373.369965 
z"/>
<path fill="#000000" opacity="1.000000" stroke="none" 
	d="
M709.722900,519.732727 
	C707.119629,515.396179 704.631592,511.449799 702.438538,507.345825 
	C700.869385,504.409363 698.498840,504.102051 695.681702,504.548065 
	C692.761963,505.010345 693.457031,507.377991 693.220947,509.249512 
	C693.179321,509.579163 693.184326,509.914368 693.155579,510.245941 
	C692.159790,521.734680 690.534119,522.974670 679.117310,521.368713 
	C676.809692,521.044067 675.944092,520.117310 676.176331,517.792969 
	C677.811096,501.427368 679.387390,485.055878 680.976624,468.685730 
	C681.312073,465.230652 682.703857,463.371582 686.670532,463.619415 
	C695.950867,464.199371 705.334351,462.669800 714.546387,464.502533 
	C724.027161,466.388763 729.382751,471.533112 730.286682,478.916443 
	C731.623169,489.832611 728.392029,496.433990 719.339600,501.310516 
	C718.916992,501.538177 718.546021,501.861755 717.609558,502.522919 
	C720.912231,508.336456 724.220642,514.160095 728.077698,520.949524 
	C721.365601,521.143921 715.645325,522.635193 709.722900,519.732727 
M696.263245,479.743317 
	C695.329407,482.276917 695.325684,484.925690 695.286682,487.571533 
	C695.262695,489.203430 695.642212,490.676666 697.543518,490.813141 
	C701.657288,491.108429 705.840881,491.531525 709.837463,490.264648 
	C712.741699,489.343964 714.516235,487.083527 714.547241,483.943573 
	C714.574829,481.145203 712.955627,478.924500 710.308655,478.562286 
	C705.803345,477.945831 701.170898,477.105347 696.263245,479.743317 
z"/>
<path fill="#000000" opacity="1.000000" stroke="none" 
	d="
M550.497620,485.289185 
	C556.802368,487.662842 552.452759,492.240753 552.995422,495.683563 
	C553.422668,498.394043 550.715271,499.013031 548.431580,499.039032 
	C542.605713,499.105438 536.777832,499.129913 530.952332,499.053467 
	C527.732239,499.011230 525.360291,499.659271 525.330139,503.591492 
	C525.298950,507.666107 528.280640,506.930511 530.615601,506.969910 
	C537.273010,507.082245 543.933228,507.079956 550.591980,507.044281 
	C554.249756,507.024719 555.580200,508.635620 555.177368,512.311340 
	C554.177979,521.430786 554.270874,521.425659 545.056335,521.407227 
	C534.235046,521.385620 523.412170,521.287354 512.593323,521.448242 
	C508.873444,521.503601 507.130585,520.762085 507.617645,516.450317 
	C509.483093,499.936096 511.069305,483.389954 512.698792,466.849731 
	C512.947571,464.324890 514.308777,463.374847 516.638428,463.360657 
	C529.119568,463.284729 541.600708,463.203857 554.081848,463.137024 
	C557.568054,463.118347 559.100769,464.393097 558.654663,468.325714 
	C557.578125,477.816864 557.764099,477.856323 548.260315,477.966003 
	C542.767029,478.029388 537.272949,478.034973 531.779236,478.040436 
	C529.346069,478.042847 527.529175,478.653076 527.404480,481.577606 
	C527.270447,484.721039 529.299011,485.038422 531.649231,485.059357 
	C537.796814,485.114105 543.944336,485.172424 550.497620,485.289185 
z"/>
<path fill="#000000" opacity="1.000000" stroke="none" 
	d="
M756.457397,498.390808 
	C751.116211,498.252686 751.489136,501.966248 751.442688,505.015228 
	C751.389587,508.500153 754.294678,507.577332 756.256775,507.603088 
	C763.413940,507.696960 770.575623,507.769135 777.729980,507.605499 
	C781.345459,507.522827 782.348999,509.009003 782.028015,512.422241 
	C781.187195,521.363464 781.275879,521.384583 772.488403,521.389587 
	C761.168335,521.396057 749.848022,521.330505 738.528442,521.403076 
	C735.197632,521.424438 733.901550,520.669250 734.369934,516.771912 
	C736.312134,500.611023 737.901123,484.405792 739.436218,468.199432 
	C739.752319,464.862610 740.978821,463.598846 744.373901,463.635620 
	C756.857727,463.770813 769.345093,463.771179 781.828674,463.620117 
	C785.387451,463.577057 786.706970,464.955078 786.247986,468.345245 
	C786.025269,469.990662 785.684387,471.635193 785.640869,473.286499 
	C785.556152,476.505890 783.927612,477.475494 780.860229,477.415497 
	C773.538574,477.272247 766.204163,477.593536 758.889893,477.323181 
	C754.653931,477.166595 753.707947,479.633209 753.536987,482.845581 
	C753.324829,486.833191 756.548218,485.589172 758.571899,485.643860 
	C764.227905,485.796753 769.896179,485.858826 775.548523,485.652374 
	C779.282043,485.516083 780.800720,486.963654 780.276855,490.622589 
	C779.802124,493.938141 781.474426,498.511688 775.376892,498.395416 
	C769.219788,498.278015 763.058472,498.379547 756.457397,498.390808 
z"/>
<path fill="#000000" opacity="1.000000" stroke="none" 
	d="
M611.485962,521.342285 
	C600.340088,523.505676 593.174744,519.693481 590.002380,508.977051 
	C589.645203,507.770386 588.926025,506.536621 587.088623,505.777130 
	C584.260925,509.334686 581.130005,512.768188 578.600647,516.598938 
	C576.096436,520.391479 572.975159,521.906860 568.538940,521.408447 
	C564.819641,520.990540 560.982666,521.887024 557.377197,520.761597 
	C556.761353,518.455811 558.330994,517.462708 559.336487,516.226135 
	C565.004395,509.255524 570.554077,502.181854 576.430481,495.391174 
	C578.822205,492.627289 578.862732,490.410980 577.052429,487.410614 
	C572.608521,480.045715 568.418762,472.527496 563.410278,463.826141 
	C569.949463,463.695221 575.631165,461.510925 580.451965,464.024719 
	C585.321289,466.563873 585.857788,473.332977 590.040222,477.599182 
	C593.763367,475.445068 595.919495,471.797974 597.990906,468.427063 
	C600.746155,463.943237 604.321838,462.493469 609.264893,463.135986 
	C612.492249,463.555481 615.756165,463.693390 620.169006,464.052155 
	C616.225098,469.302307 612.924683,473.781006 609.530151,478.187164 
	C606.890869,481.612976 604.286133,485.086792 601.379578,488.278290 
	C599.216003,490.653992 599.146606,492.667236 600.738403,495.388062 
	C604.853699,502.422180 608.768005,509.576355 612.634583,516.751526 
	C613.437927,518.242188 615.517029,520.330078 611.485962,521.342285 
z"/>
<path fill="#000000" opacity="1.000000" stroke="none" 
	d="
M645.042358,506.219269 
	C639.461426,505.424408 636.588684,507.109985 637.001465,512.802246 
	C637.106689,514.254028 636.376099,515.751587 636.370422,517.229431 
	C636.357788,520.533752 634.633301,521.341736 631.610168,521.434387 
	C619.876648,521.793579 619.744873,521.861694 620.872925,510.363647 
	C622.252014,496.306396 623.973572,482.282684 625.347961,468.225037 
	C625.704529,464.578369 627.281006,463.493225 630.787170,463.603271 
	C637.942200,463.827911 645.110291,463.593414 652.270203,463.712280 
	C663.672607,463.901520 671.541443,470.102783 673.137878,479.984222 
	C674.871155,490.712891 668.789185,500.704590 658.277832,504.204071 
	C654.150452,505.578186 649.856934,506.155243 645.042358,506.219269 
M648.924561,492.719940 
	C652.883728,492.279968 655.948425,490.666077 656.800842,486.410126 
	C657.397034,483.433411 656.890381,480.673248 654.080750,479.006866 
	C650.284363,476.755341 645.934387,476.674347 642.030701,477.920654 
	C638.891724,478.922760 640.841614,482.628357 640.151306,485.039459 
	C639.970154,485.672028 640.008301,486.368988 639.815918,486.996552 
	C638.480164,491.352661 639.995544,493.305939 644.587646,492.816742 
	C645.736633,492.694336 646.907410,492.776031 648.924561,492.719940 
z"/>
<path fill="#000000" opacity="1.000000" stroke="none" 
	d="
M873.039673,521.540405 
	C861.480713,523.664795 851.160156,521.524109 841.511963,515.645691 
	C838.743347,513.958862 838.238281,512.253540 840.358032,509.672974 
	C842.346924,507.251648 844.107544,504.642853 846.204285,501.796722 
	C850.645203,503.937744 854.449829,507.024170 859.258118,507.984558 
	C861.738098,508.479858 864.171265,508.808594 866.676147,508.665100 
	C868.685486,508.550049 870.296143,507.736450 870.702942,505.620178 
	C871.121704,503.441895 869.748535,502.106171 867.950562,501.397888 
	C862.998596,499.447205 857.937439,497.769196 853.011414,495.758087 
	C840.474487,490.639740 841.951355,475.115692 848.056824,468.887054 
	C851.864929,465.002136 856.716003,463.306610 861.973328,462.867035 
	C870.512451,462.152954 878.460388,464.317261 886.019775,468.224426 
	C888.662659,469.590485 889.438782,471.215515 887.494812,473.700531 
	C887.393433,473.830109 887.327698,473.988129 887.248718,474.134735 
	C882.984985,482.048737 883.009338,481.983124 874.751953,478.927856 
	C871.954346,477.892731 869.031372,477.130615 866.107544,476.523224 
	C863.673035,476.017548 861.210876,476.423798 860.424011,479.224915 
	C859.655945,481.959076 861.773682,483.071564 863.886414,483.860962 
	C867.471741,485.200562 871.142334,486.322479 874.687012,487.758240 
	C884.315857,491.658295 887.680908,496.371674 887.371521,505.216095 
	C887.101685,512.929749 882.462524,518.334351 873.039673,521.540405 
z"/>
<path fill="#000000" opacity="1.000000" stroke="none" 
	d="
M796.321655,502.692810 
	C801.795715,506.469055 807.360779,508.868073 813.795044,508.729401 
	C816.122253,508.679230 818.255798,508.143555 818.691345,505.484406 
	C819.085938,503.075165 817.353760,501.817322 815.402161,501.084869 
	C811.357544,499.566833 807.228577,498.273834 803.182678,496.758820 
	C794.604126,493.546478 791.296265,488.592102 791.655884,479.702087 
	C791.961853,472.139099 796.808838,466.022949 804.684082,463.945526 
	C815.232422,461.163086 825.096924,463.592468 834.514893,468.548065 
	C836.466492,469.574951 837.226379,470.946381 835.862488,472.974670 
	C835.769775,473.112579 835.677490,473.253021 835.604797,473.401947 
	C831.325500,482.171692 831.348267,482.109528 822.221191,478.799042 
	C819.579773,477.840912 816.788147,477.257355 814.028503,476.677216 
	C811.733154,476.194672 809.436035,476.697815 808.570557,479.031952 
	C807.557800,481.763062 809.854614,482.880463 811.873352,483.720093 
	C815.249573,485.124329 818.720215,486.299835 822.112854,487.666473 
	C831.933167,491.622314 836.096436,497.439117 835.219360,505.871460 
	C834.345764,514.269531 827.761658,520.713989 818.047852,521.999268 
	C807.614868,523.379700 797.908386,521.018982 789.008057,515.311768 
	C786.727539,513.849365 785.727051,512.173889 787.981201,510.221710 
	C790.796448,507.783661 790.823730,502.440155 796.321655,502.692810 
z"/>
<path fill="#000000" opacity="1.000000" stroke="none" 
	d="
M278.380798,623.634460 
	C282.128815,626.035950 286.635345,626.034912 290.035706,629.083191 
	C287.353912,632.195679 281.884125,631.550293 281.512268,636.856689 
	C273.067627,634.345215 265.732239,630.523865 258.558746,626.375977 
	C248.454239,620.533203 239.101654,613.650269 230.499649,605.751770 
	C228.395111,603.819336 226.322388,601.728882 229.693604,599.367798 
	C232.255402,597.573547 233.655487,591.756104 238.584061,596.841309 
	C249.844009,608.459290 263.624054,616.466980 278.380798,623.634460 
z"/>
<path fill="#000000" opacity="1.000000" stroke="none" 
	d="
M529.310791,558.944824 
	C529.301392,560.244019 529.287659,561.074768 529.282104,561.905457 
	C529.267273,564.128235 528.273987,565.301147 525.928162,565.185242 
	C523.901855,565.085022 522.834900,564.036499 522.823364,562.067383 
	C522.772766,553.427856 522.767761,544.788025 522.766479,536.148315 
	C522.766235,534.624634 523.528931,533.679016 525.069397,533.367310 
	C527.056091,532.965332 528.703247,533.533997 529.954468,535.093140 
	C533.177551,539.109009 536.342285,543.171753 539.575989,547.178955 
	C540.594360,548.440918 541.290833,550.054810 543.367371,550.784546 
	C544.768433,546.570923 543.812744,542.283997 544.068970,538.104309 
	C544.216003,535.705322 544.090027,533.211792 547.515137,533.230652 
	C550.893860,533.249146 550.973816,535.744507 550.992126,538.135071 
	C551.049438,545.612183 551.071716,553.089783 551.047791,560.567078 
	C551.042114,562.338074 551.367493,564.431824 548.966431,565.071533 
	C546.809753,565.646118 545.068359,564.835876 543.714050,563.102661 
	C541.054626,559.699158 538.436829,556.261108 535.697205,552.923218 
	C534.257385,551.169006 533.147583,549.028870 530.567200,547.953491 
	C528.413879,551.315186 529.755798,555.027161 529.310791,558.944824 
z"/>
<path fill="#000000" opacity="1.000000" stroke="none" 
	d="
M663.388794,545.597412 
	C664.964355,547.525208 666.327576,549.171814 668.091309,551.302307 
	C669.944580,546.765320 668.705505,542.642761 669.065369,538.669006 
	C669.283569,536.259155 668.646545,533.248474 672.487549,533.249084 
	C676.153320,533.249573 676.072937,536.021057 676.086182,538.578125 
	C676.123169,545.742981 676.160278,552.908142 676.123901,560.072815 
	C676.114075,562.008728 676.481323,564.307434 673.884094,565.040283 
	C671.402344,565.740601 669.870056,564.300049 668.451050,562.453064 
	C664.213440,556.937378 660.195984,551.230225 654.302612,545.334900 
	C654.302612,551.162842 654.298645,555.900696 654.304260,560.638550 
	C654.306946,562.891479 654.349487,565.157227 651.143982,565.169312 
	C648.000122,565.181213 647.846191,562.940491 647.829468,560.684998 
	C647.772766,553.020447 647.732605,545.355530 647.750732,537.690918 
	C647.754456,536.104858 647.253662,534.147339 649.327881,533.374146 
	C651.388977,532.605835 653.377563,533.076538 654.778809,534.758667 
	C657.656189,538.212646 660.385864,541.789795 663.388794,545.597412 
z"/>
<path fill="#000000" opacity="1.000000" stroke="none" 
	d="
M798.115967,565.122925 
	C795.316833,564.575745 795.177185,562.670044 795.159363,560.817505 
	C795.085938,553.173035 795.047363,545.527771 795.067688,537.882996 
	C795.072388,536.105957 794.821655,534.027649 797.205078,533.370422 
	C799.539307,532.726624 801.423828,533.485474 802.915894,535.396790 
	C807.174377,540.851746 811.464050,546.282471 816.768372,551.406677 
	C816.768372,546.992432 816.763062,542.578247 816.770447,538.164001 
	C816.774475,535.749023 816.753296,533.243530 820.182678,533.283875 
	C823.331360,533.320923 823.308411,535.671631 823.314819,537.893433 
	C823.336914,545.548828 823.357788,553.204285 823.323242,560.859497 
	C823.315979,562.468933 823.597839,564.369263 821.416931,564.964966 
	C819.411499,565.512756 817.887024,564.690369 816.631958,563.110657 
	C812.193970,557.524475 807.723083,551.964478 802.583801,545.543945 
	C801.495056,551.089233 802.112915,555.662354 801.894958,560.173157 
	C801.783081,562.488586 802.034485,565.097107 798.115967,565.122925 
z"/>
<path fill="#000000" opacity="1.000000" stroke="none" 
	d="
M628.627563,533.131958 
	C637.924194,534.103088 641.314392,536.592102 642.097534,542.769531 
	C642.711670,547.613586 639.864258,550.828979 636.536560,553.764648 
	C638.099182,557.627502 641.505188,560.213135 642.681763,564.413513 
	C639.047119,565.988220 636.257690,565.639893 634.037903,562.290100 
	C632.664001,560.216858 631.070435,558.289795 629.589661,556.286682 
	C628.259827,554.487793 626.473877,554.729248 624.620911,555.100769 
	C622.391724,555.547729 622.430725,557.273499 622.377441,558.957581 
	C622.351196,559.787476 622.346252,560.618286 622.348755,561.448730 
	C622.354797,563.473267 621.906067,565.106384 619.398132,565.140259 
	C617.030273,565.172180 616.103882,563.710144 616.047607,561.673645 
	C615.909790,556.694763 615.915649,551.711853 615.865967,546.730591 
	C615.861023,546.232422 615.865173,545.733948 615.876282,545.235840 
	C616.163940,532.338562 613.448242,533.007812 628.627563,533.131958 
M634.608398,541.618164 
	C632.713501,538.715515 629.734680,539.367859 626.986267,539.320190 
	C624.765808,539.281677 622.451111,539.282837 622.446228,542.414307 
	C622.443237,544.331543 621.528076,546.910339 623.470886,547.942566 
	C626.281067,549.435608 629.595947,549.199707 632.547913,547.958618 
	C634.972961,546.939087 635.898010,544.901001 634.608398,541.618164 
z"/>
<path fill="#000000" opacity="1.000000" stroke="none" 
	d="
M768.575745,565.189087 
	C755.774597,560.109802 751.985168,546.745056 760.406738,537.807556 
	C765.776428,532.108887 774.549500,530.884277 781.526001,534.859436 
	C787.743591,538.402161 790.854919,546.262634 788.889465,553.462830 
	C786.860901,560.894226 780.650391,565.417236 772.493958,565.384827 
	C771.329163,565.380188 770.164673,565.300842 768.575745,565.189087 
M773.353577,559.430176 
	C774.485352,559.160767 775.677185,559.036560 776.738831,558.597534 
	C781.950867,556.442261 784.234070,549.497986 781.543762,544.178711 
	C778.886353,538.924438 772.571167,537.107117 767.537354,540.181030 
	C763.680481,542.536377 762.344177,546.239685 762.885559,550.436462 
	C763.597229,555.953186 767.091553,558.894775 773.353577,559.430176 
z"/>
<path fill="#000000" opacity="1.000000" stroke="none" 
	d="
M609.374878,538.648254 
	C605.060181,539.850220 601.048035,539.197021 597.065308,539.345154 
	C594.676453,539.433960 593.278931,540.224854 593.311768,542.856018 
	C593.344238,545.455139 595.039185,545.763733 597.018555,545.778137 
	C599.851013,545.798706 602.683655,545.790222 605.516113,545.811890 
	C607.549316,545.827515 608.591797,546.912476 608.630188,548.905579 
	C608.670410,550.990723 607.437622,551.917847 605.496887,551.975708 
	C602.499817,552.065125 599.500366,552.080688 596.501953,552.125305 
	C594.258301,552.158691 593.190002,553.228333 593.204590,555.537476 
	C593.219604,557.920898 594.444702,558.773499 596.644470,558.766602 
	C600.143372,558.755676 603.642700,558.774658 607.141174,558.827759 
	C609.451294,558.862793 611.062012,559.804443 610.949768,562.385925 
	C610.842407,564.854797 609.018311,565.230835 607.058838,565.241455 
	C601.560059,565.271240 596.060852,565.237793 590.562317,565.284302 
	C587.852844,565.307190 586.645813,564.067871 586.660095,561.345215 
	C586.702881,553.180420 586.690735,545.014954 586.630432,536.850220 
	C586.611755,534.324219 587.842163,533.119019 590.233459,533.108032 
	C595.730286,533.082825 601.231445,533.034119 606.723267,533.218750 
	C610.124817,533.333069 610.956726,535.341736 609.374878,538.648254 
z"/>
<path fill="#000000" opacity="1.000000" stroke="none" 
	d="
M856.440308,565.082458 
	C855.623352,564.741211 854.947021,564.562866 854.828247,564.201355 
	C852.745972,557.862366 847.752014,557.929749 842.375427,558.110962 
	C838.900818,558.228027 836.312805,558.665405 835.048218,562.481384 
	C833.956482,565.775818 831.304260,565.717712 828.605286,564.564209 
	C827.705322,562.840820 828.651855,561.515869 829.238464,560.199707 
	C832.692322,552.449951 836.239258,544.741455 839.663452,536.978760 
	C840.597412,534.861450 841.671387,533.194824 844.262390,533.073792 
	C846.911316,532.950134 848.087952,534.582092 849.037903,536.687012 
	C853.123169,545.739380 857.246033,554.774841 861.233276,563.548096 
	C859.861328,565.633240 858.272461,565.116882 856.440308,565.082458 
M842.513611,545.393311 
	C841.966492,547.233826 840.515076,548.824036 840.948181,551.156250 
	C843.082581,552.224243 845.174744,552.277832 847.546448,550.912109 
	C847.564148,548.481995 846.543030,546.429443 845.470520,544.437012 
	C844.326355,542.311401 843.536438,543.530151 842.513611,545.393311 
z"/>
<path fill="#000000" opacity="1.000000" stroke="none" 
	d="
M703.817139,558.732056 
	C700.817383,558.410156 698.155701,558.389587 695.510681,558.168762 
	C691.903870,557.867615 689.090088,558.435486 687.701416,562.487122 
	C686.600647,565.698547 683.979858,565.767822 680.768250,564.242920 
	C681.711487,558.893982 684.886658,554.487366 686.746826,549.598389 
	C688.518738,544.941528 690.677551,540.420898 692.859680,535.934448 
	C694.699341,532.152283 699.305115,531.768555 701.053101,535.452087 
	C705.329468,544.463684 709.194946,553.670654 713.185181,562.816650 
	C713.357361,563.211182 713.125732,563.781738 713.069275,564.415955 
	C707.073303,567.478088 706.422668,561.871338 703.817139,558.732056 
M693.751282,549.803711 
	C695.550537,553.474731 697.992004,551.719727 700.733154,550.840881 
	C699.852051,547.859680 698.862061,545.349426 696.800293,542.346619 
	C695.673218,545.016602 694.805664,547.071777 693.751282,549.803711 
z"/>
<path fill="#000000" opacity="1.000000" stroke="none" 
	d="
M736.211304,533.501831 
	C738.912292,537.699585 738.367493,539.203552 733.956238,539.137573 
	C729.750061,539.074646 728.478516,540.497925 728.781921,544.647156 
	C729.169189,549.942932 728.941589,555.289062 728.856567,560.611450 
	C728.821594,562.800293 728.653320,565.122559 725.535828,565.167847 
	C722.429504,565.213013 722.158508,562.991272 722.125977,560.737793 
	C722.046692,555.248474 721.959290,549.755859 722.071167,544.268494 
	C722.142456,540.771851 720.980530,538.922607 717.179260,539.208923 
	C715.145569,539.362122 712.981018,539.161194 712.881958,536.314209 
	C712.770447,533.110901 715.170654,533.034485 717.359924,533.046631 
	C723.508240,533.080811 729.655823,533.240784 736.211304,533.501831 
z"/>
<path fill="#000000" opacity="1.000000" stroke="none" 
	d="
M888.021606,561.252197 
	C888.376343,564.379883 886.803833,565.208374 884.468201,565.216675 
	C879.469116,565.234436 874.468872,565.172791 869.471375,565.266663 
	C866.540405,565.321655 865.143860,564.021179 865.137695,561.119507 
	C865.120728,553.121216 865.080566,545.122864 865.072388,537.124573 
	C865.070129,534.867493 865.813721,533.148193 868.461731,533.164001 
	C871.092041,533.179749 871.845215,534.913635 871.866272,537.151978 
	C871.916382,542.484070 872.126221,547.826599 871.872375,553.145874 
	C871.667419,557.440491 873.150024,559.104370 877.581238,559.045410 
	C881.033508,558.999573 884.966187,557.515686 888.021606,561.252197 
z"/>
<path fill="#000000" opacity="1.000000" stroke="none" 
	d="
M572.141357,543.392700 
	C572.111572,549.505066 572.128601,555.165283 572.052185,560.824219 
	C572.020935,563.135437 571.539856,565.271973 568.493408,565.130798 
	C565.598938,564.996643 565.669556,562.832153 565.663452,560.795837 
	C565.647034,555.302551 565.544556,549.805786 565.703979,544.317017 
	C565.805908,540.808228 564.708069,538.992310 560.874878,539.227600 
	C558.654175,539.363831 555.799805,539.727844 555.842529,536.115356 
	C555.885376,532.489563 558.811279,533.118896 560.983154,533.067566 
	C566.140564,532.945557 571.303345,532.983215 576.462830,533.047302 
	C578.771484,533.075928 581.450562,532.844116 581.424927,536.367798 
	C581.400330,539.748474 578.796021,539.229431 576.722778,539.223328 
	C574.101562,539.215515 572.004150,539.639404 572.141357,543.392700 
z"/>
<path fill="#000000" opacity="1.000000" stroke="none" 
	d="
M472.765686,411.034821 
	C458.693298,421.194672 443.993927,429.893494 428.793640,437.754913 
	C428.398773,437.959106 427.844696,437.855377 427.099182,437.917267 
	C426.448517,434.674438 427.624176,432.454041 430.380768,430.954712 
	C442.937866,424.124725 455.489075,417.283722 468.073761,410.504913 
	C469.585449,409.690643 471.326660,408.352570 472.765686,411.034821 
z"/>
<path fill="#000000" opacity="1.000000" stroke="none" 
	d="
M745.170654,564.834961 
	C743.322632,563.340393 743.676086,561.592773 743.669861,559.970154 
	C743.640442,552.322449 743.668701,544.674500 743.653870,537.026672 
	C743.650024,535.040771 743.903076,533.277649 746.452087,533.229553 
	C748.974365,533.182007 750.054138,534.617554 750.063599,536.981445 
	C750.096008,545.127563 750.108826,553.273865 750.112366,561.420044 
	C750.113708,564.490723 748.484009,565.566406 745.170654,564.834961 
z"/>
<path fill="#000000" opacity="1.000000" stroke="none" 
	d="
M515.167358,541.152832 
	C515.146912,547.593384 515.196228,553.554504 515.076233,559.512329 
	C515.029358,561.837769 515.787170,565.008301 511.963959,565.095459 
	C507.643982,565.193848 508.735138,561.679382 508.682281,559.288940 
	C508.532318,552.504272 508.556580,545.714233 508.620178,538.927307 
	C508.641998,536.599915 507.808319,533.500488 511.697327,533.385986 
	C515.507141,533.273804 515.014954,536.259460 515.162964,538.685791 
	C515.203186,539.345581 515.169373,540.009827 515.167358,541.152832 
z"/>
<path fill="#000000" opacity="1.000000" stroke="none" 
	d="
M275.238251,473.754517 
	C276.372711,474.748077 277.680359,475.679688 276.298676,476.741608 
	C274.813660,477.882996 272.725372,478.356415 271.195312,477.000549 
	C267.952301,474.126709 264.481873,471.824402 259.699585,471.368652 
	C261.477051,467.426636 264.361481,468.271454 266.609741,469.109711 
	C269.529480,470.198334 272.169586,472.036896 275.238251,473.754517 
z"/>
<path fill="#000000" opacity="1.000000" stroke="none" 
	d="
M373.703796,393.916229 
	C367.153168,397.483429 362.204773,396.798981 359.222992,392.054626 
	C363.083527,391.699127 366.805115,391.235474 370.539795,391.071381 
	C372.055908,391.004791 373.445953,391.791992 373.703796,393.916229 
z"/>
<path fill="#000000" opacity="1.000000" stroke="none" 
	d="
M409.430115,556.044556 
	C408.296295,556.855225 407.242828,556.656067 407.145050,555.798462 
	C406.517914,550.298096 406.284088,544.789978 408.045563,539.340576 
	C411.138855,544.573486 409.931030,550.189148 409.430115,556.044556 
z"/>
<path fill="#000000" opacity="1.000000" stroke="none" 
	d="
M310.602173,416.431580 
	C311.369812,415.793304 312.037201,415.460266 313.001007,414.892334 
	C313.682068,414.961792 314.089600,415.241608 314.447357,415.574860 
	C315.982025,417.004700 319.786407,417.199432 318.514648,420.114197 
	C317.328949,422.831696 314.137360,421.116394 311.855438,420.944702 
	C308.347656,420.680725 309.738434,418.540802 310.602173,416.431580 
z"/>
<path fill="#000000" opacity="1.000000" stroke="none" 
	d="
M442.996033,437.982056 
	C442.078888,436.027802 442.409546,434.731384 444.155701,434.040863 
	C445.962585,433.326233 446.915009,434.500031 447.780792,435.818451 
	C448.958832,437.612213 450.416199,439.361450 448.464081,441.587952 
	C445.881714,441.653931 444.597382,439.857330 442.996033,437.982056 
z"/>
<path fill="#000000" opacity="1.000000" stroke="none" 
	d="
M282.969879,480.466370 
	C280.532745,481.067749 278.187622,481.082275 278.493439,478.257172 
	C278.768646,475.715149 281.194458,475.758423 283.245239,476.314484 
	C284.778625,476.730225 286.496613,476.906982 287.536255,478.493866 
	C286.648193,480.558563 284.361176,479.039825 282.969879,480.466370 
z"/>
<path fill="#000000" opacity="1.000000" stroke="none" 
	d="
M405.587799,575.839233 
	C408.529785,575.523926 409.583862,576.801575 408.898041,579.252319 
	C408.567841,580.432312 407.384094,581.139771 406.180664,580.561462 
	C403.994537,579.511047 403.444794,577.922852 405.587799,575.839233 
z"/>
<path fill="#000000" opacity="1.000000" stroke="none" 
	d="
M417.818420,580.689819 
	C415.773438,582.800537 414.330475,582.215332 413.455414,580.070496 
	C412.947784,578.826294 413.619324,577.585693 414.837524,577.280457 
	C417.288147,576.666260 418.127167,578.086060 417.818420,580.689819 
z"/>
<path fill="#000000" opacity="1.000000" stroke="none" 
	d="
M423.349579,578.751770 
	C425.943817,578.452942 427.222839,579.377747 426.651917,581.737488 
	C426.339264,583.029907 425.046082,583.475952 423.890015,583.005249 
	C421.753479,582.135254 421.277618,580.695190 423.349579,578.751770 
z"/>
<path fill="#000000" opacity="1.000000" stroke="none" 
	d="
M397.960876,579.579468 
	C395.339813,578.699341 394.849854,577.170288 396.421844,575.373108 
	C397.231262,574.447815 398.825012,574.437744 399.572784,575.411926 
	C400.912384,577.157043 400.765259,578.826843 397.960876,579.579468 
z"/>
</svg>